<svg width="368" height="298" viewBox="0 0 368 298" fill="none" xmlns="http://www.w3.org/2000/svg">
<path d="M150.938 2.99717L42.4614 111.474C41.3486 112.583 40.7273 114.093 40.7273 115.662V292.644C40.7308 294.501 42.2297 296 44.0831 296H221.066C222.635 296 224.141 295.375 225.253 294.262L333.73 185.789C334.495 185.024 334.853 183.936 334.681 182.869C327.657 139.047 307.252 96.9907 273.494 63.2363C239.733 29.4784 197.684 9.06987 153.859 2.04239C152.792 1.87038 151.703 2.22843 150.938 2.99717Z" fill="#6EDBFF" stroke="white" stroke-width="2" stroke-miterlimit="10"/>
<mask id="mask0_7595_18662" style="mask-type:luminance" maskUnits="userSpaceOnUse" x="21" y="2" width="314" height="294">
<path d="M150.938 2.99708L112.582 41.3534L33.6226 55.2153C6.95532 43.8422 30.8284 175.904 30.8284 177.477L40.7273 185.719V292.644C40.7273 294.501 42.2262 296 44.0831 296H221.066C222.635 296 224.141 295.375 225.253 294.262L333.73 185.789C334.495 185.024 334.853 183.936 334.681 182.868C327.657 139.047 307.252 96.9906 273.494 63.2362C256.522 46.2642 278.1 31.8056 257.765 21.5873C256.336 20.8712 214.256 21.0327 212.817 20.3482C193.97 11.3936 174.106 5.29277 153.862 2.0458C152.795 1.8738 151.707 2.23185 150.942 3.00059" fill="white"/>
</mask>
<g mask="url(#mask0_7595_18662)">
<path d="M138.48 307.727L135.788 307.099L155.666 219.27L160.3 220.351L138.48 307.727Z" fill="#6EDBFF" stroke="black" stroke-width="1.2" stroke-linecap="round" stroke-linejoin="round"/>
<path d="M240.393 307.728L243.089 307.099L222.466 215.991H217.485L240.393 307.728Z" fill="#6EDBFF" stroke="black" stroke-width="1.2" stroke-linecap="round" stroke-linejoin="round"/>
<path d="M206.677 309.405L203.943 309.826L189.726 220.902L194.43 220.182L206.677 309.405Z" fill="black" stroke="black" stroke-width="1.2" stroke-linecap="round" stroke-linejoin="round"/>
<path d="M138.091 222.545L157.302 227.364L225.036 227.34L205.919 222.545H138.091Z" fill="#6EDBFF" stroke="black" stroke-width="1.2" stroke-linecap="round" stroke-linejoin="round"/>
<path d="M260.65 34.2486V34.2346L251.755 28.5972L249.786 30.2856L248.351 32.6971H181.874C176.812 32.6971 172.512 36.4004 171.757 41.4025L147.614 201.704L141.397 212.133L149.738 218.118H149.741C151.233 219.277 153.107 219.975 155.168 219.975H228.953C234.015 219.975 238.315 216.272 239.069 211.27L264.427 42.8873C264.957 39.3701 263.346 36.095 260.65 34.2486Z" fill="black" stroke="black" stroke-width="1.2" stroke-linecap="round" stroke-linejoin="round"/>
<path d="M220.339 213.794H146.554C141.13 213.794 136.974 208.967 137.782 203.603L163.14 35.221C163.894 30.2154 168.194 26.5156 173.256 26.5156H247.041C252.465 26.5156 256.621 31.3422 255.813 36.7058L230.455 205.088C229.701 210.094 225.401 213.794 220.339 213.794Z" fill="#6EDBFF"/>
<path d="M247.045 26.5122H173.26C168.198 26.5122 163.898 30.2155 163.143 35.2176L137.785 203.6C136.978 208.964 141.13 213.79 146.557 213.79H220.342C225.404 213.79 229.704 210.087 230.459 205.085L255.817 36.7024C256.624 31.3388 252.472 26.5122 247.045 26.5122Z" fill="#6EDBFF"/>
<path d="M247.045 31.195C248.716 31.195 249.751 32.1076 250.218 32.6517C250.685 33.1958 251.433 34.3542 251.187 36.0075L225.829 204.39C225.418 207.128 223.108 209.111 220.342 209.111H146.557C144.886 209.111 143.851 208.198 143.384 207.654C142.917 207.11 142.169 205.952 142.415 204.299L167.773 35.9162C168.184 33.1782 170.494 31.1914 173.26 31.1914H247.045M247.045 26.5088H173.26C168.198 26.5088 163.898 30.2121 163.143 35.2142L137.785 203.597C136.978 208.96 141.13 213.787 146.557 213.787H220.342C225.404 213.787 229.704 210.083 230.459 205.081L255.817 36.699C256.624 31.3354 252.472 26.5088 247.045 26.5088Z" fill="black"/>
<mask id="mask1_7595_18662" style="mask-type:luminance" maskUnits="userSpaceOnUse" x="137" y="26" width="129" height="195">
<path d="M261.079 33.8346C261.047 33.7995 261.008 33.7679 260.966 33.7433L252.422 28.3305C250.938 27.1967 249.081 26.5122 247.041 26.5122H173.256C168.194 26.5122 163.894 30.2155 163.14 35.2176L137.782 203.6C137.294 206.836 138.621 209.866 140.93 211.768L140.892 211.835C140.737 212.095 140.807 212.432 141.053 212.611L149.394 218.596C149.394 218.596 149.415 218.61 149.425 218.617C151.085 219.891 153.069 220.561 155.168 220.561H228.953C234.348 220.561 238.845 216.69 239.649 211.358L265.007 42.9752C265.544 39.4053 264.041 35.9126 261.079 33.8346ZM143.38 207.658C142.914 207.114 142.166 205.955 142.412 204.302L167.77 35.9196C168.18 33.1817 170.49 31.1949 173.256 31.1949H247.041C247.564 31.1949 248.021 31.2896 248.421 31.43L248.014 32.111H181.87C176.475 32.111 171.978 35.9828 171.175 41.3149L147.049 201.504L143.38 207.658C143.38 207.658 143.38 207.658 143.377 207.654L143.38 207.658Z" fill="white"/>
</mask>
<g mask="url(#mask1_7595_18662)">
<path d="M136.497 203.603C135.69 208.967 139.842 213.793 145.269 213.793H220.342C225.404 213.793 229.704 210.09 230.459 205.088L255.817 36.1194C256.624 30.7558 252.472 25.9292 247.045 25.9292" stroke="#6EDBFF" stroke-width="1.2" stroke-linecap="round" stroke-linejoin="round"/>
</g>
<path d="M205.919 222.545H138.199L139.632 215.991H207.355L205.919 222.545Z" fill="white" stroke="black" stroke-width="1.2" stroke-linecap="round" stroke-linejoin="round"/>
<path d="M205.919 222.545L225.036 227.34L223.632 221.127L207.355 215.991L205.919 222.545Z" fill="#6EDBFF" stroke="black" stroke-width="1.2" stroke-linecap="round" stroke-linejoin="round"/>
<path d="M221.101 183.735H153.346L172.498 56.5737H240.253L221.101 183.735Z" fill="white"/>
<path d="M183.747 46.5918C184.796 44.2281 184.139 41.6424 182.278 40.8164C180.418 39.9904 178.059 41.2369 177.009 43.6006C175.96 45.9642 176.618 48.55 178.478 49.376C180.339 50.202 182.697 48.9554 183.747 46.5918Z" fill="white" stroke="white" stroke-width="1.2" stroke-miterlimit="10"/>
<path d="M194.457 46.5932C195.506 44.2296 194.848 41.6438 192.988 40.8178C191.128 39.9918 188.769 41.2384 187.719 43.602C186.67 45.9657 187.327 48.5514 189.188 49.3774C191.048 50.2034 193.407 48.9569 194.457 46.5932Z" stroke="black" stroke-width="1.2" stroke-miterlimit="10"/>
<path d="M230.417 39.458H242.517" stroke="black" stroke-width="1.2" stroke-linecap="round" stroke-linejoin="round"/>
<path d="M229.518 45.415H241.621" stroke="black" stroke-width="1.2" stroke-linecap="round" stroke-linejoin="round"/>
<path d="M228.623 51.3716H240.723" stroke="black" stroke-width="1.2" stroke-linecap="round" stroke-linejoin="round"/>
<path d="M181.93 85.4771H185.707L186.535 130.32H182.86L182.699 116.925H175.854L171.887 130.32H168.363L181.933 85.4771H181.93ZM182.6 109.634L182.407 94.8669L178.019 109.634H182.6Z" fill="#6EDBFF"/>
<path d="M195.701 85.4771H201.815C207.477 85.4771 209.903 94.9828 208.085 107.781C206.242 120.755 201.106 130.324 195.444 130.324H189.33L195.701 85.4806V85.4771ZM198.095 93.0697L193.882 122.728H196.526C200.05 122.728 203.216 116.75 204.48 107.841C205.736 98.9915 204.262 93.0732 200.738 93.0732H198.095V93.0697Z" fill="#6EDBFF"/>
<path d="M222.61 98.7494C222.81 94.6845 221.943 92.1115 220.005 92.1115C217.892 92.1115 216.369 94.144 215.877 97.6121C215.291 101.737 217.102 102.635 219.145 103.829C221.852 105.324 224.909 107.536 223.551 117.101C222.343 125.592 218.692 130.914 214.491 130.914C210.289 130.914 208.348 126.308 208.583 118.119L212.462 115.788C212.202 121.348 213.389 123.619 215.551 123.619C217.513 123.619 219.314 121.766 219.932 117.403C220.535 113.159 218.773 112.26 216.737 111.186C214.013 109.631 210.819 107.837 212.223 97.9701C213.311 90.3178 217.18 84.877 221.055 84.877C224.93 84.877 226.626 89.0611 226.387 96.5976L222.606 98.7494H222.61Z" fill="#6EDBFF"/>
<path d="M198.203 190.819H204.922H220.167" stroke="white" stroke-width="1.2" stroke-linecap="round" stroke-linejoin="round"/>
<path d="M152.279 190.819H191.839" stroke="white" stroke-width="1.2" stroke-linecap="round" stroke-linejoin="round"/>
<path d="M174.544 199.746H218.823" stroke="white" stroke-width="1.2" stroke-linecap="round" stroke-linejoin="round"/>
<path d="M151.001 199.746H169.29" stroke="white" stroke-width="1.2" stroke-linecap="round" stroke-linejoin="round"/>
<path d="M136.792 143.364L204.202 145.944C208.032 146.215 207.849 151.771 203.981 151.761C203.978 151.778 136.672 146.092 136.627 146.099C134.896 145.923 135.005 143.343 136.795 143.364H136.792Z" fill="#6EDBFF" stroke="black" stroke-width="1.2" stroke-linecap="round" stroke-linejoin="round"/>
<path d="M82.6746 186.814L70.9364 196.429C69.5078 199.142 67.3665 201.557 66.5241 205.639C61.6167 229.414 66.5065 274.38 65.0392 302.259H118.177C122.825 288.281 135.247 239.032 134.191 208.089C131.832 200.999 129.473 193.908 127.118 186.817H82.6782L82.6746 186.814Z" fill="black" stroke="black" stroke-width="1.2" stroke-linecap="round" stroke-linejoin="round"/>
<path d="M84.8403 230.337C87.2168 232.924 89.9618 238.98 90.8499 244.533C92.9841 258.244 90.0846 288.842 87.3923 301.272" stroke="#6EDBFF" stroke-width="1.2" stroke-linecap="round" stroke-linejoin="round"/>
<path d="M125.054 71.1343C124.699 81.9739 116.183 106.96 104.596 94.9723C104.006 94.3615 101.226 106.008 101.307 108.732C101.363 110.603 95.3957 107.293 92.412 105.766C88.8596 103.951 81.6706 101.371 86.9641 99.8691C87.5292 99.7076 96.7611 71.1343 96.7611 71.1343H125.057H125.054Z" fill="#6EDBFF" stroke="black" stroke-width="1.2" stroke-linecap="round" stroke-linejoin="round"/>
<path d="M66.5239 205.64C74.5272 201.326 129.87 198.395 134.191 208.086C133.499 198.198 132.383 187.755 130.719 176.831C127.121 153.232 121.666 132.156 115.643 113.879C114.611 110.748 111.988 106.297 108.875 105.215C97.4175 101.245 74.2569 100.048 63.7824 108.08C43.3423 126.322 24.0922 154.387 36.88 176.294C39.2072 180.285 48.7481 187.513 67.5032 186.811C68.3984 191.058 67.6998 195.348 66.5239 205.636V205.64Z" fill="#6EDBFF"/>
<path d="M134.191 208.086C133.499 198.198 127.1 175.855 124.306 165.019C120.322 149.574 125.078 146.425 121.403 132.995C117.833 129.446 114.267 137.878 110.697 134.333C115.228 150.164 132.59 204.499 134.191 208.086Z" fill="white"/>
<path d="M63.7684 164.475C61.3674 164.868 60.5706 164.169 60.3108 163.874C59.0191 162.397 60.3354 158.521 63.9194 154.253" stroke="black" stroke-width="1.2" stroke-linecap="round" stroke-linejoin="round"/>
<path d="M66.3065 206.735C65.5131 205.278 67.0927 197.622 67.2542 195.035C68.395 176.912 67.0927 167.304 63.0139 149.595C62.4592 147.187 61.859 144.828 61.2236 142.522" stroke="black" stroke-width="1.2" stroke-linecap="round" stroke-linejoin="round"/>
<path d="M99.6113 116.802L107.52 106.689C121.547 109.912 130.621 134.168 147.617 147.678C158.608 156.415 176.247 161.446 185.5 154.39C187.725 152.417 188.476 147.815 192.899 144.997C196.596 142.641 201.212 141.76 202.04 142.564C202.668 143.171 201.721 144.323 196.912 147.303C196.343 146.962 201.513 147.64 202.328 152.853C202.896 156.493 199.362 158.834 199.126 159.052C196.582 169.147 183.797 175.578 178.451 177.596C156.028 186.059 124.594 175.213 102.862 139.889" fill="#6EDBFF"/>
<path d="M202.04 142.56C201.212 141.757 196.596 142.638 192.899 144.993C188.477 147.815 187.725 152.414 185.5 154.386C184.313 155.292 182.987 155.994 181.558 156.517C181.551 156.517 181.544 156.517 181.54 156.517C181.512 156.528 181.488 156.538 181.46 156.549C171.733 160.052 157.169 155.264 147.617 147.671C131.116 134.554 121.635 109.498 108.282 105.212C107.882 105.085 103.266 103.127 102.858 103.032C102.858 103.032 110.423 105.829 125.959 130.717C137.094 148.552 153.953 167.975 180.157 160.996C193.538 157.433 189.603 146.618 202.04 142.553V142.56Z" fill="white"/>
<path d="M108.871 105.215C122.947 111.432 130.621 134.168 147.617 147.675C158.608 156.412 176.247 161.442 185.5 154.387C187.725 152.414 188.476 147.812 192.899 144.993C196.596 142.638 201.212 141.757 202.04 142.561C202.668 143.168 201.721 144.319 196.912 147.3C196.343 146.959 201.513 147.637 202.328 152.849C202.896 156.489 199.362 158.831 199.126 159.048C196.582 169.144 183.797 175.574 178.451 177.593C156.028 186.056 124.594 175.209 102.862 139.886" stroke="black" stroke-width="1.2" stroke-linecap="round" stroke-linejoin="round"/>
<path d="M195.128 147.17C196.431 146.794 198.688 146.548 199.569 146.741C202.809 147.447 203.374 151.217 202.412 152.414" fill="#6EDBFF"/>
<path d="M196.304 146.959C202.391 145.2 203.641 150.887 202.416 152.414" stroke="black" stroke-width="1.2" stroke-linecap="round" stroke-linejoin="round"/>
<path d="M199.077 149.518C204.968 148.998 204.831 154.471 203.42 155.825Z" fill="#6EDBFF"/>
<path d="M199.077 149.518C204.968 148.998 204.831 154.471 203.42 155.825" stroke="black" stroke-width="1.2" stroke-linecap="round" stroke-linejoin="round"/>
<path d="M200.229 152.414C202.416 152.414 203.883 154.204 203.209 157.967C202.528 161.765 199.035 164.458 198.13 163.973C197.431 163.598 197.501 163.033 198.256 161.481C198.681 160.607 199.597 159.055 199.759 157.518" fill="#6EDBFF"/>
<path d="M200.229 152.414C202.416 152.414 203.883 154.204 203.209 157.967C202.528 161.765 199.035 164.458 198.13 163.973C197.431 163.598 197.322 162.934 198.256 161.481C198.737 160.73 199.481 158.771 199.081 157.553" stroke="black" stroke-width="1.2" stroke-linecap="round" stroke-linejoin="round"/>
<path d="M134.191 208.086C133.499 198.198 124.759 167.634 124.306 165.019" stroke="black" stroke-width="1.2" stroke-linecap="round" stroke-linejoin="round"/>
<path d="M108.871 105.215C99.6114 100.55 75.991 97.2858 60.7215 110.656C37.6452 130.321 23.6605 160.646 37.4803 177.182C40.7272 181.068 52.2022 188.875 67.5033 186.814" stroke="black" stroke-width="1.2" stroke-linecap="round" stroke-linejoin="round"/>
<path d="M58.3206 77.144C57.4079 76.9861 57.1306 75.8102 57.8783 75.2626C68.5108 67.5155 77.6164 57.2831 87.1642 50.9437C95.7362 45.2536 105.793 43.2878 115.622 47.4229C119.704 49.1394 131.913 57.3077 127.992 74.227C126.5 77.9022 119.802 93.2209 102.539 101.284C84.542 109.687 67.5034 104.401 60.869 101.684C59.7458 101.224 59.6369 99.6727 60.6795 99.0514C63.3086 97.4823 65.9413 95.9168 68.5705 94.3477C67.4999 94.3828 66.4117 94.4004 65.306 94.4004C59.142 94.3828 53.4203 93.7123 48.2146 92.6698C47.2634 92.4802 47.0668 91.206 47.9092 90.7251C55.8459 86.2075 63.786 81.6898 71.7227 77.1721C69.2796 77.2388 62.7786 77.9198 58.3171 77.144H58.3206Z" fill="black" stroke="black" stroke-width="1.2" stroke-linecap="round" stroke-linejoin="round"/>
<path d="M227.566 133.599C222.217 144.558 203.763 135.726 204.202 145.945C205.536 146.324 205.975 151.091 204.23 151.761C203.549 154.878 205.382 157.184 208.274 157.799C212.265 158.645 228.353 158.852 227.563 133.599H227.566Z" fill="#6EDBFF" stroke="black" stroke-width="1.2" stroke-linecap="round" stroke-linejoin="round"/>
<path d="M219.707 152.4C218.331 150.585 223.116 144.923 219.377 143.603C215.916 142.381 213.824 149.486 209.647 148.998C207.892 148.795 207.337 142.778 210.865 140.317C206.958 140.784 204.027 141.795 204.206 145.941C205.54 146.32 205.979 151.087 204.234 151.757C203.553 154.874 205.385 157.181 208.278 157.795C211.044 158.381 219.626 158.658 224.369 150.357C222.989 152.414 220.767 153.793 219.711 152.396L219.707 152.4Z" fill="black" stroke="black" stroke-width="1.2" stroke-linecap="round" stroke-linejoin="round"/>
<path d="M102.858 139.886C104.343 144.902 107.464 152.947 114.246 160.754C118.251 165.363 122.4 168.589 125.763 170.786C125.457 169.014 125.155 167.241 124.85 165.468C121.712 162.885 118.335 159.775 114.93 156.071C109.679 150.36 105.758 144.74 102.855 139.889L102.858 139.886Z" fill="black" stroke="black" stroke-width="1.2" stroke-linecap="round" stroke-linejoin="round"/>
<path d="M111.887 194.284C118.328 194.284 131.186 196.144 132.874 199.746" stroke="black" stroke-width="1.2" stroke-linecap="round" stroke-linejoin="round"/>
<path d="M175.987 157.661C181.776 160.866 184.973 166.342 184.082 171.193C183.889 172.246 183.313 174.293 181.256 176.41C182.674 175.672 184.092 174.935 185.51 174.195C186.062 172.942 187.044 170.218 186.486 166.865C185.447 160.589 179.936 157.567 179.21 157.184C178.135 157.346 177.061 157.504 175.984 157.665L175.987 157.661Z" fill="black"/>
<path d="M259.706 97.5103C258.811 97.5103 257.407 97.4015 255.813 96.8083C255.143 96.5591 254.553 96.2642 254.041 95.9623C252.988 95.3375 252.412 94.144 252.598 92.933L257.87 58.8521C258.056 57.6446 259.166 56.7951 260.377 56.9461C260.945 57.0163 261.577 57.1567 262.237 57.4094C264.017 58.0904 265.084 59.2277 265.54 59.7788C263.596 72.356 261.651 84.9332 259.703 97.5139L259.706 97.5103Z" stroke="#6EDBFF" stroke-width="1.2" stroke-linecap="round" stroke-linejoin="round"/>
<path d="M255.132 76.5997C255.318 75.3922 256.428 74.5427 257.639 74.6936C258.207 74.7638 258.839 74.9043 259.499 75.157C261.279 75.838 262.346 76.9753 262.802 77.5264" stroke="#6EDBFF" stroke-width="1.2" stroke-linecap="round" stroke-linejoin="round"/>
</g>
<path d="M40.7307 292.644C40.7307 294.501 42.2261 296 44.083 296H221.065C222.635 296 224.14 295.375 225.253 294.262L333.73 185.789C334.495 185.024 334.853 183.936 334.681 182.869" stroke="white" stroke-width="2" stroke-miterlimit="10"/>
</svg>
